<?xml version="1.0" encoding="utf-8"?>
<!-- Generator: Adobe Illustrator 23.0.0, SVG Export Plug-In . SVG Version: 6.00 Build 0)  -->
<svg version="1.1" id="Layer_1" xmlns="http://www.w3.org/2000/svg" xmlns:xlink="http://www.w3.org/1999/xlink" x="0px" y="0px"
	 viewBox="0 0 200 200" style="enable-background:new 0 0 200 200;" xml:space="preserve">
<style type="text/css">
	.st0{fill:#FFFFFF;}
</style>
<g>
	<g>
		<path class="st0" d="M80.16,27.18H105v67.25c0,11.62-2.26,21.19-6.77,28.55c-4.67,7.36-10.84,12.8-18.82,16.04
			c-7.83,3.38-17.01,5-27.25,5c-11.89,0-21.53-2.06-29.2-6.33c-7.53-4.41-13.1-10.15-16.41-17.51c-3.46-7.36-5.27-15.75-5.27-25.16
			V27.18h24.99v64.75c0,10.01,2.11,17.66,6.17,23.1c4.06,5.44,11.14,8.24,21.38,8.24c9.63,0,16.41-2.8,20.32-8.24
			c3.91-5.44,6.02-12.51,6.02-21.34V27.18z"/>
		<path d="M20.88,135.14c-6.81-3.94-11.89-9.38-15.27-16.33c-3.37-6.95-5.06-15.01-5.06-24.19V24.69h10.11v67.99
			c0,26.48,12.17,39.73,36.5,39.73c11.74,0,20.7-3.33,26.87-9.97c6.17-6.65,9.26-16.34,9.26-29.05V24.69h10.11v69.39
			c0,10.84-2.08,19.75-6.23,26.75c-4.15,7.01-9.75,12.13-16.8,15.36c-7.05,3.24-15.02,4.86-23.94,4.86
			C36.2,141.05,27.68,139.08,20.88,135.14z"/>
	</g>
	<g>
		<path class="st0" d="M199.45,139.63c0,7.83-1.96,14.45-6.17,19.72c-4.06,5.42-9.63,9.33-16.71,12.04
			c-6.93,2.71-14.9,3.91-23.94,3.91c-18.06,0-33.42-4.67-46.07-14l11.59-17.91c11.29,7.07,22.13,10.69,32.97,10.69
			c6.77,0,12.19-1.05,16.11-3.31c3.91-2.11,5.87-5.42,5.87-9.63c0-2.71-0.6-4.97-1.96-6.62c-1.2-1.81-3.46-3.46-6.62-5.12
			c-3.16-1.66-7.98-3.61-14.3-6.17l-4.22-1.66c-7.68-3.01-13.85-5.87-18.67-8.73c-4.67-2.71-8.43-6.32-11.14-10.69
			c-2.71-4.22-4.21-9.79-4.21-16.41c0-7.38,2.11-13.4,6.32-18.37c4.21-4.82,9.63-8.43,16.26-10.69c6.62-2.26,13.7-3.46,21.23-3.46
			c6.77,0,13.7,1.2,20.77,3.31c7.23,2.26,14,5.57,20.62,9.94l-11.74,17.61c-5.72-3.46-10.84-6.02-15.2-7.53
			c-4.52-1.51-9.33-2.26-14.45-2.26c-5.72,0-10.09,0.9-12.95,2.86c-3.01,1.81-4.37,4.52-4.37,7.68c0,2.11,0.6,3.91,1.81,5.57
			c1.05,1.66,3.31,3.16,6.32,4.82c3.16,1.66,7.68,3.61,13.55,5.72l3.91,1.51c7.68,2.86,13.85,5.57,18.67,8.13
			c4.67,2.41,8.73,6.02,11.89,10.84C197.79,126.08,199.45,132.11,199.45,139.63z"/>
		<path d="M124.02,171.5c-6.75-2.23-13-5.51-18.79-9.85l4.88-7.23c5.3,3.98,11.05,6.93,17.25,8.85c6.2,1.93,12.25,2.9,18.16,2.9
			c10.11,0,17.64-2.05,22.58-6.15c4.93-4.09,7.4-9.75,7.4-16.98c0-4.81-1.14-8.76-3.43-11.83c-2.29-3.07-5.36-5.62-9.21-7.67
			s-9.21-4.34-16.08-6.87l-3.43-1.09c-7.47-2.76-13.46-5.35-17.97-7.76c-4.52-2.41-8.23-5.57-11.11-9.49
			c-2.89-3.91-4.34-8.82-4.34-14.72c0-6.14,1.72-11.47,5.15-15.99c3.43-4.51,7.98-7.95,13.64-10.29c5.66-2.35,11.81-3.53,18.43-3.53
			c6.62,0,12.89,0.87,18.79,2.62c5.9,1.74,11.92,4.6,18.06,8.58l-4.87,7.23c-5.42-3.37-10.69-5.84-15.8-7.4
			c-5.12-1.57-10.64-2.35-16.53-2.35c-4.34,0-8.56,0.72-12.64,2.17c-4.1,1.45-7.48,3.68-10.12,6.68c-2.65,3.01-3.97,6.87-3.97,11.56
			c0,3.98,0.87,7.29,2.62,9.94c1.74,2.65,4.45,5,8.13,7.04c3.67,2.05,8.82,4.28,15.44,6.69l3.43,1.26c7.7,2.77,13.91,5.36,18.6,7.76
			c4.7,2.41,8.76,5.84,12.19,10.3c3.43,4.46,5.15,10.18,5.15,17.16c0,6.62-1.57,12.31-4.7,17.07c-3.14,4.76-7.71,8.4-13.73,10.93
			c-6.03,2.53-13.31,3.79-21.86,3.79C137.86,174.84,130.76,173.73,124.02,171.5z"/>
	</g>
</g>
</svg>
